<svg version="1.1" xmlns="http://www.w3.org/2000/svg" style="display: block;" viewBox="0 0 2048 2048" width="1024" height="1024">
<path transform="translate(0,0)" fill="rgb(243,242,242)" d="M 0 0 L 2048 0 L 2048 2048 L 0 2048 L 0 0 z"/>
<path transform="translate(0,0)" fill="rgb(67,67,67)" d="M 1112.16 1343.56 C 1114.22 1343.63 1116.16 1343.74 1118.07 1344.6 C 1124.22 1347.38 1128.47 1356.04 1130.72 1361.97 C 1133.3 1368.77 1136.81 1380.52 1133.75 1387.28 C 1124.97 1383.66 1123.65 1365.77 1119.01 1357.85 C 1116.95 1354.34 1112.74 1351.63 1111.23 1347.99 C 1110.63 1346.55 1111.67 1344.97 1112.16 1343.56 z"/>
<path transform="translate(0,0)" fill="rgb(67,67,67)" d="M 1204.74 1338.82 C 1204.95 1338.81 1205.17 1338.77 1205.38 1338.78 C 1208.12 1338.92 1208.47 1338.78 1210.18 1340.79 C 1210.11 1341.12 1210.08 1341.47 1209.97 1341.79 C 1207.31 1349.52 1188.22 1361.91 1181.04 1365.4 C 1174.07 1368.79 1170.43 1369.17 1163.13 1366.65 C 1161.72 1365.24 1159.79 1363.43 1158.83 1361.7 C 1157.71 1359.69 1157.55 1359.08 1158.22 1356.98 C 1159.09 1356.52 1159.41 1356.28 1160.48 1356.12 C 1164.49 1355.53 1168.58 1358.54 1171.9 1360.46 C 1172.15 1360.35 1172.41 1360.25 1172.67 1360.13 C 1173.09 1359.93 1173.5 1359.72 1173.92 1359.53 C 1185.04 1354.33 1193.78 1344.71 1204.74 1338.82 z"/>
<path transform="translate(0,0)" fill="rgb(13,12,12)" d="M 874.904 922.052 C 876.966 921.878 879.125 921.653 881.185 921.931 C 884.94 922.437 888.472 924.733 890.695 927.768 C 893.022 930.946 893.842 934.781 892.953 938.627 C 891.763 943.771 888.885 946.023 884.553 948.666 C 883.594 948.737 882.635 948.822 881.674 948.839 C 877.431 948.913 873.353 947.738 870.339 944.617 C 867.73 941.915 866.618 938.281 866.954 934.571 C 867.477 928.798 870.593 925.541 874.904 922.052 z"/>
<path transform="translate(0,0)" fill="rgb(67,67,67)" d="M 1101.36 1358.65 L 1105.07 1360.1 C 1109.44 1365.47 1102.45 1375.48 1104.2 1382.63 C 1105.42 1387.62 1109.35 1391.27 1113.74 1393.64 C 1120.77 1397.45 1143.76 1406.48 1151.05 1403.92 C 1157.38 1401.69 1163.51 1396.48 1169.95 1395.04 C 1172 1394.59 1172.01 1394.72 1173.79 1395.97 C 1173.83 1399.12 1171.91 1401.33 1170.24 1403.86 C 1166.3 1407.68 1162.61 1410.35 1157.17 1411.55 C 1142.55 1414.81 1117.64 1408.11 1105.4 1399.87 C 1099.58 1395.96 1095.44 1390.19 1094.28 1383.22 C 1092.73 1373.96 1096.29 1366.14 1101.36 1358.65 z"/>
<path transform="translate(0,0)" fill="rgb(67,67,67)" d="M 534.826 1296.65 C 538.791 1300.24 553.288 1337.88 557.025 1345.76 C 572.776 1378.97 591.413 1408.76 615.792 1436.32 C 612.507 1435.15 610.248 1433.09 607.586 1430.89 C 575.207 1404.15 554.5 1368.58 542.241 1328.82 C 539.018 1318.36 535.84 1307.58 534.826 1296.65 z"/>
<path transform="translate(0,0)" fill="rgb(67,67,67)" d="M 1132.75 1196.38 C 1134.23 1196.78 1134.13 1196.72 1135.81 1197.37 C 1144.49 1200.73 1153.17 1208.15 1161.13 1213.09 C 1180.24 1224.94 1205.83 1232.81 1214.65 1255.68 C 1222.33 1275.59 1215.04 1298.46 1206.56 1316.8 L 1205.62 1317.92 C 1203.61 1312.87 1217.62 1279.58 1206.3 1256.85 C 1193.46 1231.05 1137.39 1218.93 1131.17 1203.26 C 1130.08 1200.53 1131.6 1198.77 1132.75 1196.38 z"/>
<path transform="translate(0,0)" fill="rgb(67,67,67)" d="M 426.28 1362.3 C 447.072 1360.66 458.896 1371.43 474.524 1382.56 C 481.402 1387.45 489.481 1390.47 497.986 1388.82 C 513.008 1385.92 522.537 1372.56 530.309 1360.6 C 528.69 1370.42 527.059 1377.94 521.467 1386.3 C 519.74 1388.2 517.951 1389.93 515.983 1391.59 C 488.335 1414.83 466.667 1385.16 440.487 1377.95 C 430.582 1375.23 419.83 1379.26 409.907 1377.91 C 407.04 1377.52 406.87 1376.87 405.17 1374.71 C 405.043 1373.09 404.627 1372.25 405.59 1370.8 C 409.534 1364.89 419.703 1363.29 426.28 1362.3 z"/>
<path transform="translate(0,0)" fill="rgb(13,12,12)" d="M 869.469 964.08 L 890.514 964.102 C 891.184 980.813 890.585 997.645 890.542 1014.37 L 890.957 1086.99 L 869.982 1086.96 A 11999.2 11999.2 0 0 0 869.469 964.08 z"/>
<path transform="translate(0,0)" fill="rgb(13,12,12)" d="M 1244.06 960.288 C 1246.5 963.096 1245.04 979.956 1245 984.293 L 1243.43 983.908 C 1241.81 983.494 1240.17 982.998 1238.49 982.843 C 1233.17 982.35 1226.4 986.137 1222.72 989.723 C 1217.9 994.425 1214.63 1000.86 1213.06 1007.36 C 1209.43 1022.35 1211.67 1069.76 1211.72 1088.19 L 1192.25 1088.15 L 1192.25 1073.69 C 1192.23 1037.29 1192.9 1000.69 1191.25 964.324 L 1211.06 964.053 C 1211.68 969.861 1211.77 975.75 1212.02 981.583 C 1213.08 979.344 1214.19 977.073 1215.46 974.944 C 1221.46 964.857 1233.61 962.837 1244.06 960.288 z"/>
<path transform="translate(0,0)" fill="rgb(67,67,67)" d="M 1313.87 1184.25 C 1317.11 1184 1320.64 1183.51 1323.76 1184.64 C 1333.98 1188.34 1342.67 1196.64 1352.24 1201.81 C 1369.66 1211.23 1391.59 1215.92 1410.86 1220.38 C 1475.05 1235.24 1528.71 1234.17 1585.81 1198.55 C 1581.23 1205.4 1578.22 1213.21 1573 1219.62 A 196.208 196.208 0 0 1 1566.17 1224.3 C 1522.92 1252.37 1466.55 1251.92 1417.92 1241.64 C 1399.58 1237.77 1306.16 1211.61 1299.63 1197.96 C 1298.38 1195.35 1298.51 1194.6 1299.15 1191.95 C 1302.85 1187.27 1308.24 1185.52 1313.87 1184.25 z"/>
<path transform="translate(0,0)" fill="rgb(13,12,12)" d="M 602.179 963.942 L 621.195 964.059 C 622.266 988.867 615.996 1041.02 632.424 1059.85 C 637.567 1065.75 644.426 1068.84 652.22 1069.05 C 660.079 1069.26 667.613 1066.79 673.336 1061.31 C 678.934 1055.95 682.121 1048.6 683.78 1041.14 C 687.579 1024.05 685.336 983.326 685.254 964.28 L 703.893 964.217 L 703.915 995.618 L 703.718 1086.88 L 685.261 1086.73 L 685.307 1071.29 C 675.867 1080.28 664.116 1086.6 650.829 1086.96 C 639.006 1087.28 626.448 1083.51 617.793 1075.25 C 610.942 1068.71 606.912 1059.89 604.77 1050.78 C 600.135 1031.07 602.291 986.448 602.179 963.942 z"/>
<path transform="translate(0,0)" fill="rgb(67,67,67)" d="M 1114.84 1229.04 C 1117.23 1228.79 1119.63 1228.54 1122.01 1229.03 C 1140.16 1232.71 1180.19 1250.31 1189.73 1266.06 C 1200.09 1283.16 1186.3 1299.9 1182.54 1316.6 L 1182.18 1318.26 C 1178.71 1318.31 1175.04 1317.61 1171.59 1317.12 C 1166.15 1316.35 1161.79 1316.63 1156.4 1317.37 C 1145.28 1320.99 1137.68 1325.88 1129.4 1334.03 C 1120.59 1331.45 1106.29 1331.18 1100.57 1323.01 C 1089.79 1307.65 1108.96 1294.02 1110.66 1279.36 C 1112.13 1266.61 1102.26 1254.61 1104.59 1242.24 C 1105.79 1235.87 1109.64 1232.44 1114.84 1229.04 z"/>
<path transform="translate(0,0)" fill="rgb(13,12,12)" d="M 1442.55 962.184 C 1447.35 961.878 1452.2 961.885 1456.95 962.771 C 1469.14 965.046 1477.56 971.229 1484.63 981.201 A 110.545 110.545 0 0 1 1488.94 976.415 C 1497.56 967.517 1509.76 962.726 1522.08 962.689 C 1535.01 962.65 1547.28 967.235 1556.33 976.596 A 46.8434 46.8434 0 0 1 1568.07 998.017 C 1572.68 1016.33 1570.06 1068.62 1570.06 1090.43 C 1563.63 1090.2 1557.19 1090.4 1550.75 1090.51 C 1550.53 1073.85 1550.67 1057.17 1550.69 1040.51 C 1550.7 1029.96 1551.66 1018.55 1549.57 1008.18 C 1548.49 1002.82 1546.22 997.631 1542.7 993.418 C 1537.08 986.705 1528.58 983.37 1519.94 983.045 C 1513 982.783 1506.24 986.272 1501.46 991.173 C 1489.31 1003.62 1493.22 1034.2 1493.16 1050.97 L 1493.16 1090.75 L 1473.76 1090.15 C 1473.23 1068.8 1476.83 1024.44 1472.77 1006.24 C 1471.48 1000.46 1468.91 994.896 1464.79 990.588 C 1460.4 986.002 1454.54 983.643 1448.22 983.501 C 1441.22 983.344 1434.73 985.698 1429.8 990.722 C 1425.03 995.571 1421.99 1002.16 1420.51 1008.74 C 1416.73 1025.55 1419 1071.15 1419.03 1090.34 L 1399.07 1090.18 C 1399.46 1048.26 1400.7 1005.55 1398 963.737 L 1414.87 963.668 C 1416.93 968.31 1418.44 973.253 1420.1 978.051 C 1426.82 970.02 1432.19 965.103 1442.55 962.184 z"/>
<path transform="translate(0,0)" fill="rgb(13,12,12)" d="M 963.153 963.198 C 976.581 961.877 989.527 963.268 1001.22 970.583 C 1016.13 979.912 1026.91 996.087 1030.78 1013.15 A 60.4082 60.4082 0 0 1 1022.33 1060.3 C 1012.52 1075.38 998.604 1083.14 981.366 1086.93 C 965.918 1088.24 951.856 1085.84 938.614 1077.41 C 925.037 1068.77 916.018 1054.89 912.61 1039.25 C 908.956 1022.48 911.93 1004.24 921.419 989.857 C 931.303 974.874 945.89 966.809 963.153 963.198 z"/>
<path transform="translate(0,0)" fill="rgb(243,242,242)" d="M 1009.41 1041.95 A 45.8696 45.8696 0 0 1 985.381 1067.04 C 977.348 1070.64 968.101 1071.57 959.822 1068.24 C 947.933 1063.46 938.164 1054.63 933.403 1042.63 C 928.891 1031.24 929.51 1018.85 934.437 1007.71 C 939.168 997.016 947.678 987.301 958.825 983.148 C 967.824 979.795 977.523 980.753 986.117 984.83 C 997.297 990.134 1005.31 999.548 1009.54 1011.06 C 1013.04 1021.32 1013.5 1031.76 1009.41 1041.95 z"/>
<path transform="translate(0,0)" fill="rgb(13,12,12)" d="M 509.137 963.195 A 80.6678 80.6678 0 0 1 516.527 962.836 C 533.928 962.653 546.068 970.685 557.938 982.373 C 558.172 976.424 557.978 970.417 557.932 964.461 C 564.649 964.227 571.407 964.424 578.128 964.485 A 5854.2 5854.2 0 0 0 578.786 1086.57 L 557.539 1086.57 C 557.229 1082.65 557.675 1078.75 557.486 1074.84 C 557.368 1072.38 557.559 1070.38 555.72 1068.6 L 553.087 1070.7 C 546.831 1076.89 539.77 1081.82 531.361 1084.63 C 518.596 1088.9 504.178 1087.43 492.336 1081.14 C 477.365 1073.18 466.882 1058.19 462.287 1042.09 C 457.523 1025.39 459.485 1005.68 468.338 990.63 C 477.515 975.034 492.208 967.365 509.137 963.195 z"/>
<path transform="translate(0,0)" fill="rgb(243,242,242)" d="M 516.915 982.322 A 42.1395 42.1395 0 0 1 538.256 986.395 C 547.86 991.04 554.691 999.413 557.823 1009.56 C 561.551 1021.65 560.574 1036.04 554.388 1047.17 C 547.735 1059.14 537.093 1064.32 524.51 1067.96 C 515.101 1069.29 506.593 1067.96 498.555 1062.59 C 489.333 1056.43 483.402 1046.21 481.271 1035.45 C 478.791 1022.92 481.21 1008.79 488.762 998.361 C 495.837 988.585 505.275 984.193 516.915 982.322 z"/>
<path transform="translate(0,0)" fill="rgb(13,12,12)" d="M 1305.31 963.23 C 1307.29 963.069 1309.23 962.981 1311.22 963.016 C 1329.91 963.343 1340.78 973.193 1352.99 985.824 L 1353 964.025 L 1372.85 964.69 A 10164.4 10164.4 0 0 0 1371.95 1088.77 L 1352.93 1088.97 C 1352.8 1083.66 1353.91 1078.25 1352.83 1073.04 L 1351.62 1072.34 L 1348.54 1075.55 C 1341.38 1081.96 1331.82 1086.69 1322.37 1088.54 A 53.5898 53.5898 0 0 1 1282.52 1080.22 C 1267.81 1070.45 1258.38 1054.67 1255.17 1037.46 C 1251.89 1019.85 1256.46 1002.62 1266.5 987.976 C 1276.14 973.918 1288.67 966.276 1305.31 963.23 z"/>
<path transform="translate(0,0)" fill="rgb(243,242,242)" d="M 1306.96 981.089 C 1316.04 980.519 1324.19 982.191 1332.14 986.796 C 1342.45 992.761 1349.62 1002.49 1352.58 1013.98 C 1355.86 1026.72 1355.4 1042.47 1348.39 1053.83 C 1341.78 1064.52 1332.26 1069.44 1320.37 1071.99 C 1311.75 1072.31 1304.38 1071.67 1296.57 1067.7 C 1286.06 1062.37 1278.39 1052.39 1274.82 1041.27 A 49.4803 49.4803 0 0 1 1278.4 1002.46 C 1284.81 990.728 1294.4 984.536 1306.96 981.089 z"/>
<path transform="translate(0,0)" fill="rgb(13,12,12)" d="M 1097.82 963.294 C 1098.9 963.173 1100 963.108 1101.09 963.063 C 1119.75 962.285 1131.71 967.105 1145.27 979.706 C 1145.37 974.569 1145.66 969.427 1145.88 964.293 L 1164.7 964.923 C 1165.19 985.821 1164.9 1006.8 1164.95 1027.71 C 1164.98 1041.8 1165.66 1056.29 1164.63 1070.34 C 1163.68 1083.25 1159.41 1096.99 1149.08 1105.49 C 1135.43 1116.71 1116.43 1119.06 1099.37 1117.48 C 1085.07 1116.16 1064.02 1110.66 1054.83 1098.65 C 1052.97 1096.21 1052.43 1094.05 1052.84 1090.99 C 1056.55 1086.77 1061.99 1083.91 1066.68 1080.86 C 1068.63 1083.39 1070.63 1085.9 1072.91 1088.15 C 1081.97 1097.12 1095.77 1102.02 1108.41 1101.97 C 1118.39 1101.93 1127.97 1099.32 1135.1 1092.01 C 1145.2 1081.67 1145.04 1068.51 1144.61 1055.11 C 1136.51 1063.48 1128.05 1069.62 1116.49 1072.27 A 54.4276 54.4276 0 0 1 1074.25 1064.67 C 1061.83 1056.49 1053.57 1044.08 1050.51 1029.58 C 1047.41 1014.87 1050 998.574 1058.59 986.118 C 1068.11 972.313 1081.95 966.163 1097.82 963.294 z"/>
<path transform="translate(0,0)" fill="rgb(243,242,242)" d="M 1100.96 981.22 C 1109.96 980.426 1119.32 982.146 1127.2 986.674 A 36.9485 36.9485 0 0 1 1144.66 1010.33 A 40.2535 40.2535 0 0 1 1139.73 1040.71 C 1133.45 1050.76 1124.13 1055.5 1112.88 1057.84 C 1104.55 1058.31 1097.69 1057.81 1090.01 1054.05 A 38.565 38.565 0 0 1 1070.02 1030.83 C 1066.98 1020.74 1067.84 1009.38 1073.05 1000.15 C 1079.31 989.066 1089.23 984.424 1100.96 981.22 z"/>
<path transform="translate(0,0)" fill="rgb(13,12,12)" d="M 822.099 924.89 C 829.065 924.596 836.09 924.773 843.064 924.779 C 843.492 978.524 841.593 1032.78 843.954 1086.44 L 823.007 1086.04 L 823.283 1067.19 C 815.756 1074.54 808.799 1080.86 798.627 1084.52 C 783.381 1089.99 768.454 1087.37 754.321 1080.35 C 750.996 1078.22 747.702 1075.87 744.755 1073.23 C 731.615 1061.47 725.451 1044.98 724.678 1027.66 C 723.872 1009.6 729.301 994.132 741.54 980.781 C 751.909 969.469 765.111 962.952 780.581 962.472 C 798.012 961.931 810.48 968.592 822.892 980.117 C 821.848 961.761 822.166 943.274 822.099 924.89 z"/>
<path transform="translate(0,0)" fill="rgb(243,242,242)" d="M 783.778 981.404 C 792.471 981.925 799.797 983.654 806.915 988.923 C 816.206 995.8 821.801 1006.6 823.109 1017.97 C 824.648 1031.34 821.61 1044.96 812.774 1055.33 C 804.536 1065.01 794.764 1068.6 782.504 1069.67 C 773.968 1069.08 767.161 1067.07 760.227 1061.85 C 750.601 1054.61 744.583 1043.45 743.093 1031.56 C 741.538 1019.17 744.68 1006.17 752.582 996.386 C 760.848 986.147 771.155 982.568 783.778 981.404 z"/>
<path transform="translate(0,0)" fill="rgb(67,67,67)" d="M 1068.5 1406.32 C 1072.09 1407.96 1075.58 1411.41 1078.82 1413.8 C 1091.11 1422.89 1102.4 1430.4 1117.55 1433.68 C 1128.17 1435.98 1151.37 1438.96 1160.62 1432.72 C 1162.89 1431.18 1165.21 1429.71 1167.5 1428.19 L 1168.67 1429.29 C 1171.19 1442.3 1153.87 1457.17 1150.12 1469.2 C 1148.23 1475.24 1148.88 1481.11 1150.34 1487.15 C 1155.01 1506.35 1170.54 1504.29 1182.35 1515.37 C 1192.22 1524.63 1199.48 1537.45 1206.03 1549.13 C 1224.04 1581.2 1239.39 1615.55 1255.84 1648.49 L 1378.04 1898.73 C 1380.5 1903.52 1382.69 1908.43 1384.94 1913.32 C 1373.05 1909.05 1361.28 1905.35 1349 1902.4 C 1342.1 1888.67 1336.1 1874.53 1329.51 1860.66 C 1298.33 1794.99 1268.7 1728.38 1233.99 1664.47 C 1218.15 1635.31 1202.6 1605.99 1181.32 1580.31 C 1165.4 1561.1 1136.36 1537.04 1114.86 1524.12 C 1102.6 1516.75 1092.82 1514.88 1079.03 1518.35 C 1080.7 1502.17 1081.29 1483.28 1075.52 1467.78 C 1072.71 1460.24 1068.95 1453.07 1066.17 1445.5 C 1061.05 1431.59 1062.47 1419.59 1068.5 1406.32 z"/>
<path transform="translate(0,0)" fill="rgb(67,67,67)" d="M 1304.64 1219.55 A 1226.66 1226.66 0 0 0 1341.43 1234.28 C 1395.49 1254.53 1459.39 1271.96 1516.89 1258.83 C 1532.32 1255.3 1546.59 1249.19 1560.93 1242.66 C 1556.03 1254.77 1548.24 1266.53 1541.76 1277.91 C 1530.75 1297.26 1519.95 1316.77 1507.97 1335.54 C 1493.89 1357.61 1478.28 1379.37 1466.02 1402.5 C 1453.91 1425.34 1445.67 1449.53 1439.38 1474.52 C 1409.83 1591.87 1437.69 1713.94 1469.11 1827.95 A 3201.02 3201.02 0 0 0 1506.12 1955.24 A 777.295 777.295 0 0 0 1515.56 1985.17 C 1507.35 1978.78 1499.84 1971.45 1491.75 1964.89 C 1474.81 1951.17 1454.7 1938.63 1434.34 1930.78 L 1335.32 1726.87 C 1301.97 1657.83 1269.8 1588.4 1234.73 1520.2 C 1235.93 1505.55 1237.26 1489.89 1228.6 1477 C 1221.47 1466.39 1211.11 1463.33 1199.34 1460.79 C 1195.75 1452.96 1191.23 1443.65 1189.75 1435.18 C 1186.55 1416.92 1233.75 1388.77 1247.33 1376.99 A 192.332 192.332 0 0 0 1279.93 1341.23 C 1304.42 1305.82 1312.19 1261.47 1304.64 1219.55 z"/>
<path transform="translate(0,0)" fill="rgb(67,67,67)" d="M 138.108 1162.48 C 185.801 1161.95 233.559 1162.71 281.258 1162.8 L 518.762 1162.87 L 1267.33 1162.92 L 1705.11 1163.03 L 1846.38 1162.95 C 1874.37 1162.93 1902.72 1162.02 1930.65 1163.68 C 1928.03 1180.5 1924 1197.68 1920.15 1214.28 C 1880.16 1386.46 1776.69 1561.82 1643.03 1677.91 C 1601.58 1713.9 1556.91 1742.93 1510.45 1771.83 L 1504.67 1764.03 C 1557.01 1728.92 1607.74 1691.82 1653.57 1648.39 A 899.854 899.854 0 0 0 1910.66 1178.93 L 1834.94 1178.91 A 485.18 485.18 0 0 1 1833.16 1185.97 C 1796.56 1327.45 1735.2 1450.72 1634.29 1557.64 C 1594.36 1599.94 1549.49 1638.29 1499.28 1667.87 C 1510.6 1654.51 1529.67 1645.05 1543.54 1634.1 C 1563.06 1618.67 1581.36 1601.64 1599.14 1584.26 A 801.792 801.792 0 0 0 1790.2 1283.81 C 1802.5 1249.58 1811.6 1214.16 1820.54 1178.95 L 1735.52 1178.75 C 1729.57 1209.27 1717.73 1238.68 1706.14 1267.41 C 1671.04 1354.49 1621.35 1432.05 1554.79 1498.47 C 1535.47 1517.75 1514.61 1535.64 1494.27 1553.83 C 1504.16 1537.78 1520.08 1524.86 1533.55 1511.78 C 1546.33 1499.38 1558.91 1486.54 1570.53 1473.04 C 1619.58 1416.08 1662.75 1349.05 1690.64 1279.11 C 1703.77 1246.17 1713.51 1212.59 1724.06 1178.81 C 1689.97 1178.36 1655.25 1176.92 1621.21 1178.96 C 1604.49 1238.36 1567.02 1302.24 1533.57 1353.96 C 1518.98 1376.52 1502.04 1398.71 1490.13 1422.8 C 1476.35 1450.67 1467.94 1481.04 1462.97 1511.64 C 1449.5 1594.51 1463.17 1673.07 1482.53 1753.8 C 1490.46 1786.84 1498.81 1819.55 1507.98 1852.26 A 4347.39 4347.39 0 0 0 1535.08 1945.57 C 1541.27 1966.61 1547.08 1987.84 1554.14 2008.6 L 1538.77 2011.51 C 1527.71 1979.56 1519.38 1946.75 1509.8 1914.35 C 1483.18 1824.3 1457.93 1733.42 1445.14 1640.24 C 1436.51 1564.23 1443.74 1478.96 1480.06 1410.56 C 1496.18 1380.19 1517.72 1352.12 1535.84 1322.85 C 1563.94 1277.43 1589.23 1228.1 1608.42 1178.28 C 1603.93 1178.13 1598.27 1177.44 1594 1178.92 C 1593.54 1179.08 1593.1 1179.27 1592.66 1179.43 C 1577.51 1185.09 1564.28 1195.57 1549.4 1202.16 C 1498.64 1224.62 1445.99 1216.45 1396.34 1195.82 C 1378.85 1188.56 1371.46 1178.65 1351.69 1178.07 C 1362.03 1188.93 1373.25 1198.71 1384.56 1208.53 C 1367.92 1200.91 1354.69 1192.01 1342.7 1178.06 C 1324.78 1178.33 1306.83 1178.13 1288.9 1178.13 C 1291.15 1183.11 1293.39 1188.28 1295.05 1193.48 C 1307.35 1232.01 1298.22 1288.8 1279.61 1324.23 C 1259.92 1361.71 1241.74 1372.29 1202.9 1384.47 C 1232.76 1364.83 1254.06 1351.77 1270.72 1318.81 C 1292 1276.7 1295.98 1222.88 1281.31 1178.05 L 1255.98 1177.95 C 1271.06 1202.88 1276.13 1227.47 1271.57 1256.49 C 1265.91 1292.49 1245.65 1328.09 1216.03 1349.57 C 1237.56 1317.72 1259.31 1288.19 1263.06 1248.33 C 1265.41 1223.29 1261.34 1197.85 1244.94 1178.04 L 1091.39 1177.81 A 2293.09 2293.09 0 0 0 1064.79 1255.75 C 1055.1 1252.44 1046.38 1247.64 1038.8 1240.71 C 1020.79 1224.24 1014.77 1202.56 1013.7 1178.89 C 1008.26 1178.71 1002.8 1178.67 997.357 1178.58 C 997.805 1189.31 998.147 1200.08 999.31 1210.76 C 1004 1253.77 1019.98 1279.3 1053.2 1306.04 C 1043.48 1301.86 1034.45 1297.17 1025.81 1291.02 C 987.038 1263.44 969.325 1224.49 961.406 1178.64 L 595.433 1178.47 A 11514.7 11514.7 0 0 0 455.339 1179.06 C 440.828 1203.68 425.165 1228.68 407.35 1251.05 C 392.845 1269.26 362.145 1297.91 353.394 1316.55 C 349.492 1324.86 348.967 1333.82 352.178 1342.45 C 354.538 1348.79 359.157 1354.63 363.935 1359.39 C 386.118 1381.44 411.646 1378.25 436.838 1390.81 C 447.321 1396.03 457.06 1404.46 460.829 1415.86 C 468.301 1438.44 458.508 1461.17 448.5 1481.05 C 489.988 1485.97 521.645 1509.7 560.914 1520.75 A 114.793 114.793 0 0 0 590.903 1525.17 C 596.15 1525.23 602.802 1523.76 607.802 1525.13 C 607.724 1525.54 607.717 1525.97 607.567 1526.36 C 601.18 1542.94 517.276 1544.49 498.327 1552.44 C 488.439 1556.59 480.319 1563.81 476.44 1574 C 474.129 1580.07 473.431 1587.42 476.486 1593.37 C 478.904 1598.08 483.188 1601.23 488.244 1602.63 C 511.237 1609 547.676 1585.91 566.966 1574.99 C 550.118 1590.92 531.188 1604.12 508.783 1610.73 C 529.598 1628.6 531.725 1654.85 524.354 1679.81 C 515.959 1708.23 502.657 1731.09 516.199 1761.06 C 525.33 1781.26 544.809 1795.13 565.177 1802.52 C 589.391 1811.3 614.674 1811.88 640.021 1809.06 C 722.086 1799.93 916.118 1727.74 986.489 1685.45 A 357.653 357.653 0 0 0 1030.95 1653.76 C 1045.57 1641.4 1059.25 1623.06 1077.04 1615.43 C 1090.45 1609.67 1107.91 1613.71 1120.82 1619.3 C 1135.56 1625.68 1148.92 1635.27 1161.53 1645.12 C 1175.6 1656.1 1189.24 1667.63 1200.93 1681.17 C 1248.03 1735.76 1281.64 1828.39 1308.17 1895.25 C 1294.8 1894.34 1281.47 1893.62 1268.06 1893.71 C 1162.03 1894.38 1075.71 1937 1002.1 2011.5 C 961.71 1919.67 897.08 1835.63 815.147 1777.29 C 770.934 1795.41 717.32 1812.56 670.472 1821.46 C 624.508 1830.18 573.118 1832.73 532.77 1804.85 C 509.912 1789.06 498.46 1768.47 493.428 1741.61 L 456.044 1715.47 C 426.03 1694.29 398.394 1669.69 372.218 1643.98 A 908.516 908.516 0 0 1 147.871 1283.53 C 134.473 1244.18 122.865 1203.93 115.798 1162.91 L 138.108 1162.48 z"/>
<path transform="translate(0,0)" fill="rgb(243,242,242)" d="M 446.902 1482.53 C 457.268 1486.47 467.451 1490.22 477.477 1495.01 C 493.474 1502.66 509.178 1511.66 525.585 1518.37 C 534.816 1522.14 544.686 1524.13 554.066 1527.49 L 553.668 1528.71 C 529.674 1530.58 504.776 1531.37 481.444 1524.46 C 469.201 1520.84 453.845 1513.84 447.835 1501.93 C 444.323 1494.97 444.604 1489.76 446.902 1482.53 z"/>
<path transform="translate(0,0)" fill="rgb(243,242,242)" d="M 321.241 1179.29 A 9403.69 9403.69 0 0 1 437.485 1179.27 C 425.765 1200.09 411.179 1220.73 396.5 1239.62 C 384.68 1254.05 372.73 1268.48 359.701 1281.85 C 346.432 1247.68 332.286 1214.33 321.241 1179.29 z"/>
<path transform="translate(0,0)" fill="rgb(243,242,242)" d="M 226.361 1179.51 C 254.174 1178.53 282.18 1179.14 310.016 1179.15 C 316.117 1190.82 320.483 1204.1 325.496 1216.3 C 334.937 1239.27 345.031 1262.49 357.074 1284.22 C 348.82 1292.51 341.079 1302.86 336.969 1313.91 C 332.153 1326.86 332.778 1339.64 338.684 1352.12 C 349.287 1374.52 372.653 1388.77 395.694 1395.63 C 405.553 1398.57 415.794 1400.36 425.475 1403.87 C 434.638 1407.2 439.562 1411.31 443.598 1420.32 C 454.345 1444.33 437.966 1459.67 430.622 1480.46 C 427.446 1489.45 427.817 1499.64 432.122 1508.2 C 441.237 1526.32 464.96 1535.53 483.099 1541.1 L 475.737 1547.2 C 473.118 1549.56 470.84 1552.03 468.724 1554.85 C 459.267 1567.42 456.839 1580.06 458.959 1595.37 C 360.872 1499.86 290.801 1380.01 247.318 1250.71 C 239.676 1227.98 229.555 1203.27 226.361 1179.51 z"/>
<path transform="translate(0,0)" fill="rgb(243,242,242)" d="M 136.157 1179.21 C 161.182 1178.57 186.3 1179.02 211.332 1179.13 C 254.447 1327.17 318.776 1459.14 427.785 1570.3 C 441.588 1584.38 455.8 1600.82 471.597 1612.57 C 482.671 1620.81 498.297 1618.89 505.975 1632.31 C 520.893 1658.38 502.476 1686.3 495.604 1711.59 L 495.119 1713.4 C 493.921 1719.38 493.31 1725.48 492.54 1731.53 C 452.598 1699.46 413.129 1667.44 377.433 1630.55 A 942.416 942.416 0 0 1 155.093 1252.81 C 147.798 1228.62 140.612 1204.1 136.157 1179.21 z"/>
<path transform="translate(0,0)" fill="rgb(67,67,67)" d="M 999.765 33.4471 A 907.255 907.255 0 0 1 1450.89 137.437 C 1486.59 156.306 1521.25 178.354 1554.43 201.344 A 840.522 840.522 0 0 1 1669 298.426 A 943.639 943.639 0 0 1 1894.86 652.294 C 1902.76 673.798 1910.58 695.397 1916.79 717.463 C 1926.17 750.831 1933.89 786.236 1939.39 820.442 C 1942.95 842.591 1945.15 864.971 1949.15 887.043 L 1597.99 886.92 A 114.161 114.161 0 0 0 1591.2 804.441 C 1583.62 788.933 1571.72 774.652 1554.99 768.925 L 1554.86 782.84 C 1560.73 786.004 1565.32 789.343 1569.72 794.385 C 1591.32 819.132 1590.96 856.18 1588.97 886.966 C 1532.18 889.503 1475.04 888.45 1418.19 888.393 L 1211.5 889.066 L 101.713 887.126 C 122.075 666.138 211.816 476.558 362.08 314.168 C 379.609 295.224 399.327 278.147 418.607 261.018 A 919.072 919.072 0 0 1 901.962 40.8422 C 934.413 36.4495 967.068 34.7198 999.765 33.4471 z"/>
<path transform="translate(0,0)" fill="rgb(243,242,242)" d="M 1540.3 705.876 C 1554.45 705.826 1574.46 710.324 1584.47 720.806 C 1587.47 723.943 1591.48 730.653 1591.45 735.002 C 1582.12 728.483 1570.37 721.055 1558.84 719.642 C 1553.83 719.028 1548.19 719.498 1543.32 718.231 C 1540.81 717.578 1540.68 716.84 1539.34 714.762 C 1538.99 711.324 1539.28 709.166 1540.3 705.876 z"/>
<path transform="translate(0,0)" fill="rgb(243,242,242)" d="M 1425.36 741.45 C 1426.91 741.656 1428.39 742.032 1429.91 742.379 C 1431.29 743.629 1432.28 744.696 1433.2 746.332 C 1439.83 758.133 1439 777.861 1435.43 790.704 C 1429.89 810.647 1415.63 828.752 1397.43 838.665 C 1382.42 846.843 1367.39 847.213 1351.4 842.504 C 1349.29 841.553 1347.61 840.456 1345.72 839.141 C 1344.53 836.773 1344.09 835.752 1344.51 833.104 C 1346.34 831.462 1346.8 830.898 1349.48 831.221 C 1352.11 831.538 1355.12 833.078 1357.74 833.773 A 47.8517 47.8517 0 0 0 1387.89 832.189 C 1408.97 823.998 1427.01 800.371 1427.35 777.372 C 1427.5 767.12 1422.9 754.158 1423.62 745.243 C 1423.69 744.355 1424.95 742.354 1425.36 741.45 z"/>
<path transform="translate(0,0)" fill="rgb(243,242,242)" d="M 1273.36 780.232 C 1282.44 779.477 1291.52 779.855 1300.2 782.829 C 1312.35 786.987 1321.77 795.505 1327.11 807.182 C 1333.61 821.379 1333.35 837.782 1327.57 852.177 C 1324.43 859.998 1317.96 866.989 1310.13 870.254 C 1306.59 871.73 1303.53 872.329 1299.87 870.922 L 1299.16 869.184 C 1301.71 863.305 1313.73 856.975 1318.62 846.743 A 40.0233 40.0233 0 0 0 1320.16 815.955 A 38.8629 38.8629 0 0 0 1299.02 793.245 C 1274.63 782.735 1251.95 798.536 1230.94 809.113 C 1221.58 813.827 1212.05 817.86 1202.26 821.571 C 1166.85 835.66 1125.15 841.698 1101.16 874.051 L 1088.02 872.622 C 1096.81 860.816 1107.71 849.475 1120.5 841.994 C 1146.11 827.022 1177.68 820.473 1205.21 809.446 C 1228.28 800.207 1248.81 785.365 1273.36 780.232 z"/>
<path transform="translate(0,0)" fill="rgb(243,242,242)" d="M 1230.35 543.543 C 1233.55 544.015 1235.91 544.338 1238.12 547.009 C 1244.39 554.586 1245.14 572.042 1244.37 581.532 C 1242.21 607.788 1228.56 629.038 1209.29 646.26 C 1172.79 678.871 1118.88 696.655 1071.76 707.653 C 1028.81 717.678 959.517 726.322 925.996 755.537 C 915.048 765.079 906.579 779.417 905.978 794.185 C 905.012 817.964 918.758 821.551 929.217 836.157 C 931.303 839.069 930.243 840.44 929.411 843.563 C 927.807 843.758 926.467 843.847 924.916 843.268 C 914.111 839.24 905.628 828.676 900.954 818.407 C 895.099 805.545 893.856 789.025 899.215 775.699 C 921.689 719.808 1016.07 710.293 1067.78 698.036 C 1094.42 691.722 1121.04 683.989 1146.16 673 C 1186.48 655.366 1238.93 622.146 1233.86 571.005 C 1233.03 562.555 1227.37 551.225 1230.35 543.543 z"/>
<path transform="translate(0,0)" fill="rgb(243,242,242)" d="M 1340.35 588.619 C 1343.14 589.611 1344.91 589.72 1346.65 592.173 C 1345.91 606.914 1330.7 633.186 1322.74 646.448 C 1319.63 651.627 1315.23 656.404 1313.16 662.089 C 1314.28 664.204 1314.63 664.435 1317 665.15 C 1320.39 666.17 1324.59 666.259 1328.14 666.91 C 1340.46 669.169 1352.07 673.604 1362 681.365 C 1375.22 691.685 1384.54 707.806 1386.28 724.574 C 1387.88 740.047 1382.99 755.281 1373.24 767.305 C 1368.79 772.786 1362.95 778.203 1355.5 778.728 C 1353.15 778.894 1352.98 778.624 1351.37 777.117 C 1351.86 768.362 1367.16 762.898 1371 753.567 C 1376.82 739.419 1378.08 725.023 1371.82 710.652 C 1364.71 694.318 1349.61 682.216 1332.38 677.962 C 1322.69 675.568 1312.89 674.776 1303.56 670.948 C 1251.71 730.776 1182.56 750.568 1109.1 770.117 C 1075.1 779.707 1035.9 789.613 1013.99 819.617 C 1009.58 825.653 1006.31 830.678 1004.5 838.021 C 1002.93 844.389 1003.28 858.467 998.847 862.974 C 996.326 863.857 995.576 864.238 992.982 863.809 C 991.908 862.711 991.539 862.023 991.2 860.476 C 989.76 853.913 992.94 843.954 994.521 837.556 C 1008.24 782.028 1082.06 766.716 1129.18 754.5 A 649.456 649.456 0 0 0 1176.78 740.414 C 1206.29 730.264 1235.79 716.388 1260.95 697.852 C 1287.25 678.478 1310.27 652.169 1324.35 622.593 C 1329.25 612.305 1333.19 598.41 1339.85 589.272 C 1340.01 589.051 1340.18 588.837 1340.35 588.619 z"/>
<path transform="translate(0,0)" fill="rgb(243,242,242)" d="M 946.419 467.072 C 949.377 467.082 950.747 467.595 952.85 469.524 L 952.775 472.094 C 948.566 478.323 940.567 478.911 934.057 481.559 C 907.023 492.557 882.062 514.51 870.94 541.887 C 865.624 554.973 863.404 570.103 869.278 583.416 C 874.703 595.712 887.005 605.596 899.401 610.25 C 919.368 617.748 935.967 613.453 953.69 602.783 C 957.154 600.698 962.382 596.624 966.205 595.621 C 968.534 595.01 969.503 596.164 971.32 597.377 C 971.733 598.879 972.248 599.621 971.691 601.171 C 968.928 608.865 951.175 616.614 943.653 619.875 C 928.729 626.347 911.523 625.77 896.537 619.841 C 880.44 613.472 867.636 601.957 860.702 586.024 C 824 564.922 764.8 549.376 722.156 553.775 A 105.323 105.323 0 0 0 650.868 592.309 C 630.009 618.487 625.037 652.305 628.792 684.729 C 633.774 712.111 649.087 741.632 672.039 758.258 C 679.98 764.011 690.192 768.421 696.905 775.537 C 696.827 776.107 696.868 776.706 696.671 777.246 C 695.781 779.699 694.237 780.214 692.078 781.133 C 689.03 780.882 686.837 780.281 684.165 778.747 C 655.053 762.035 631.845 734.457 622.738 702.121 C 613.366 668.845 616.352 631.432 633.62 601.138 C 649.076 574.023 674.455 554.969 704.572 546.84 C 747.564 535.235 818.237 551.275 855.549 572.897 C 855.839 555.678 859.298 541.507 867.772 526.385 C 884.888 495.842 912.994 476.327 946.419 467.072 z"/>
<path transform="translate(0,0)" fill="rgb(243,242,242)" d="M 507.867 792.952 C 526.377 801.822 545.297 809.502 565.295 814.344 C 617.27 826.929 702.525 832.356 747.463 854.249 C 755.83 858.326 762.138 863.179 768.483 869.956 L 737.5 870.02 A 8964.62 8964.62 0 0 0 564.974 869.744 C 535.877 869.761 506.699 870.281 477.618 869.436 C 486.297 843.738 496.39 817.503 507.867 792.952 z"/>
<path transform="translate(0,0)" fill="rgb(243,242,242)" d="M 978.557 359.423 C 991.591 358.175 1005.35 358.81 1018.44 358.888 A 780.178 780.178 0 0 1 1251.2 396.609 C 1358.83 431.938 1451.02 500.484 1522.86 587.224 C 1548.26 617.901 1570.72 649.398 1588.69 685.083 C 1615.67 738.656 1634.4 787.477 1646.77 846.22 C 1648.04 852.27 1652.39 863.645 1650.07 869.254 C 1649.43 870.79 1648.51 870.772 1647.1 871.404 C 1646.58 871.32 1643.25 870.952 1643.06 870.76 C 1642.09 869.765 1627.5 815.595 1625.62 809.551 A 541.237 541.237 0 0 0 1607.17 758.665 C 1590.45 719.765 1569.95 683.412 1546.92 647.935 C 1539.2 636.058 1531.46 623.055 1521.39 613.031 C 1516.09 607.75 1510.55 604.392 1503.85 601.183 C 1494.93 596.905 1484.35 592.235 1474.21 592.464 C 1468.69 592.588 1459.24 596.191 1454.8 593.296 C 1453.47 590.578 1453.17 590.363 1453.71 587.435 C 1454.91 585.859 1455.91 584.778 1457.77 584.063 C 1471.26 578.879 1491.35 585.074 1503.85 590.409 C 1487.72 573.864 1473.06 555.993 1456.55 539.745 C 1413.66 497.552 1363.01 464.535 1309.78 436.878 C 1299.82 431.701 1269.67 416.776 1259.32 416.082 L 1260.41 417.366 C 1275.04 420.729 1292.7 436.316 1303.13 446.643 C 1307.93 451.395 1324.71 468.918 1324.09 475.055 C 1323.8 477.905 1323.23 478.545 1321.3 480.417 C 1318.88 480.179 1318.21 480.073 1316.32 478.364 C 1311 473.552 1306.7 466.409 1302.14 460.822 C 1292.47 448.967 1277.32 437.868 1263.63 431.024 A 93.2103 93.2103 0 0 0 1213.81 421.628 C 1146.97 427.861 1156.65 486.851 1123.49 496.879 C 1114.22 499.684 1107.33 497.182 1099.07 493.014 C 1077.23 482.003 1062.22 456.237 1037.33 450.629 C 1027.07 448.318 1016.79 449.208 1006.54 447.528 C 1004.38 445.832 1004.28 445.536 1003.39 442.918 C 1003.84 441.501 1003.86 440.486 1005.1 439.517 C 1009.41 436.13 1017.22 436.905 1022.41 437.42 C 1071.53 442.286 1085.62 484.336 1112.8 487.644 C 1132.96 490.098 1139.56 463.833 1148.12 450.55 A 92.3809 92.3809 0 0 1 1169.41 427.679 C 1185.9 415.053 1208.52 409.11 1229.17 410.467 C 1237.5 411.015 1245.86 413.045 1254.17 414.105 C 1250.05 410.428 1238.31 407.874 1232.81 405.99 C 1163.59 382.291 1086.2 374.548 1013.43 373.525 C 1025.68 379.735 1036.78 386.714 1045.35 397.663 C 1050.67 404.459 1062.58 420.726 1060.65 429.48 C 1060.16 431.697 1059.43 432.928 1057.6 434.28 C 1052.26 432.805 1042.81 411.113 1038.79 405.53 A 60.9121 60.9121 0 0 0 1025.53 391.945 C 1008.85 379.521 987.451 377.816 967.449 380.819 C 920.053 387.934 879.745 422.181 852.301 459.733 C 861.893 463.683 872.669 467.786 880.807 474.333 C 883.287 476.328 884.785 477.93 885.217 481.106 L 883.567 482.879 C 874.198 484.275 854.697 471.373 844.818 467.981 C 829.253 462.635 812.272 458.959 795.889 457.676 C 766.533 455.378 739.91 460.873 724.267 488.62 C 715.509 504.154 708.924 519.855 694.874 531.607 C 675.217 548.048 648.438 553.592 623.356 551.25 C 618.278 556.518 613.982 562.596 610.161 568.823 C 605.898 575.769 602.423 588.777 594.292 591.944 C 592.793 592.528 593.183 592.418 591.844 591.823 C 591.319 590.923 591.2 590.849 590.942 589.666 C 588.599 578.931 603.56 558.501 608.885 549.477 C 597.946 546.629 586.379 544.437 575.174 543.014 C 559.143 556.701 544.458 577.516 532.669 595.019 C 508.967 630.205 486.319 678.378 495.185 721.863 C 498.073 736.028 504.875 749.139 515.642 758.9 C 552.242 792.082 631.624 795.974 679.641 805.204 C 717.308 812.445 754.81 821.507 787.261 842.854 C 786.345 840.508 785.604 838.174 785.028 835.719 C 777.44 803.354 790.751 769.231 808 742.345 C 786.518 744.119 764.336 741.158 745.496 730.084 C 728.606 720.156 715.061 703.815 710.312 684.623 C 706.355 668.631 708.4 651.399 717.059 637.266 C 727.19 620.73 743.431 611.889 761.848 607.638 A 171.693 171.693 0 0 1 769.293 607.037 C 784.52 606.216 801.017 610.88 812.238 621.485 C 820.413 629.211 824.804 639.265 825.123 650.482 C 825.331 657.812 824.083 670.054 818.11 675.271 C 816.15 676.983 814.941 677.123 812.438 677.008 L 810.924 675.117 C 809.98 669.747 814.766 661.416 815.322 655.504 C 816.136 646.855 813.916 638.415 808.246 631.726 C 800.172 622.202 787.222 617.723 775.027 617.216 C 759.867 616.586 743.057 622.468 732.162 633.16 C 722.582 642.561 717.658 656.759 717.906 670.024 C 718.195 685.48 724.923 699.645 735.904 710.35 C 758.458 732.335 785.18 732.957 814.773 732.811 C 821.257 723.836 830.175 715.697 838.567 708.548 C 892.358 662.717 964.611 650.999 1031.33 636.386 C 1040.87 627.618 1049.18 614.882 1052.86 602.426 C 1056.94 588.625 1056.35 572.326 1049.17 559.668 C 1036.64 537.557 1006.68 529.409 982.746 533.58 C 974.508 535.016 962.474 540.87 954.475 538.589 L 954.08 533.956 L 953.531 534.811 C 957.409 529.313 965.042 527.052 971.461 525.743 C 994.273 521.091 1020.14 522.234 1040.02 535.472 A 56.3274 56.3274 0 0 1 1064.64 572.425 C 1068.83 595.257 1061.26 614.91 1048.31 633.336 C 1064.33 629.74 1080.76 626.571 1096.15 620.737 C 1129.6 608.058 1152.39 587.148 1162.7 552.436 C 1166.28 540.391 1168.45 527.911 1173.69 516.415 C 1181.81 498.635 1195.09 484.536 1213.67 477.806 C 1229.67 472.011 1246.44 472.77 1261.81 480.243 C 1282.14 490.126 1293.05 509.299 1300.33 529.839 C 1312.2 520.652 1323.53 513.59 1338.42 510.484 C 1357.81 506.441 1377.1 510.7 1393.51 521.634 A 90.4271 90.4271 0 0 1 1432.2 579.498 C 1437.13 604.255 1429.72 623.804 1416.1 644.154 C 1438 646.573 1455.6 648.032 1474.9 660.019 C 1498 674.367 1513.94 698.622 1519.91 725.012 C 1527.08 756.746 1521.66 792.16 1504 819.588 C 1489.49 842.117 1466.27 861.22 1439.61 866.702 C 1429.73 868.734 1415.38 869.897 1406.62 864.043 C 1405.5 861.959 1405.31 862.403 1405.83 859.874 C 1410.9 855.619 1423.51 857.44 1429.97 857.352 C 1449.93 857.079 1468.7 844.996 1482.13 830.964 A 113.025 113.025 0 0 0 1512.71 749.665 C 1511.86 723.532 1502.7 696.751 1483.19 678.674 C 1465.75 662.511 1442.21 655.149 1418.76 654.435 C 1413.14 654.264 1407.53 655.233 1401.97 655.075 C 1399.17 654.996 1398.38 654.372 1396.49 652.397 C 1396.12 645.873 1408.82 639.181 1412.35 633.013 C 1414.55 629.176 1416.74 625.312 1418.46 621.232 C 1425.93 603.53 1425.19 583.873 1417.74 566.275 C 1409.89 547.761 1393.84 530.052 1374.86 522.607 C 1354.99 514.811 1331.04 519.115 1314.18 532.036 C 1308.22 536.604 1302.27 543.732 1295.4 546.605 C 1293.67 545.795 1293.19 545.626 1292.42 543.734 C 1291 540.247 1290.96 535.844 1290.16 532.142 C 1288.55 524.762 1283.69 516.616 1279.42 510.433 C 1270.59 497.644 1258.19 486.931 1242.34 484.516 C 1232.31 482.987 1221.71 484.683 1212.54 488.974 C 1163.22 512.04 1188.3 577.783 1131.07 614.162 C 1101.97 632.663 1068.7 638.399 1035.53 645.332 C 977.293 657.507 908.241 670.005 859.09 705.172 C 828.459 727.087 800.594 763.591 794.717 801.548 C 790.323 829.924 798.575 848.688 814.839 871.193 L 794.445 871.155 C 785.638 861.381 776.233 852.913 764.795 846.299 C 695.601 806.285 560.43 820.248 505.867 772.523 C 487.845 756.759 479.561 733.582 478.12 710.131 C 474.19 646.168 515.332 584.313 556.354 538.413 C 579.173 512.88 606.089 490.587 633.929 470.739 C 736.935 397.302 853.342 366.492 978.557 359.423 z"/>
<path transform="translate(0,0)" fill="rgb(67,67,67)" d="M 932.913 377.409 C 935.14 377.131 937.074 377.116 939.31 377.299 C 935.668 381.484 917.863 387.165 912.052 390.383 C 885.369 405.16 858.312 431.361 841.826 456.879 A 152.754 152.754 0 0 0 813.828 449.487 C 773.927 442.892 736.66 446.519 715.269 484.882 C 706.102 501.322 699.646 516.18 683.742 527.348 C 659.371 544.462 631.955 542.469 604.074 537.77 A 605.567 605.567 0 0 0 582.215 534.751 C 583.131 533.461 584.046 532.209 585.051 530.985 C 597.792 515.469 615.183 502.755 631.119 490.676 C 717.717 425.035 825.245 387.653 932.913 377.409 z"/>
<path transform="translate(0,0)" fill="rgb(243,242,242)" d="M 995.48 303.426 C 1018.19 301.82 1041.69 303.211 1064.38 304.531 C 1165.9 310.441 1263.61 336.066 1352.89 385.227 A 748.292 748.292 0 0 1 1686.88 768.824 C 1700.05 802.093 1709.69 836.801 1719.61 871.142 C 1701.22 871.613 1682.77 871.195 1664.38 871.103 C 1657.48 838.598 1651.27 806.321 1641.48 774.497 C 1614.56 686.914 1563.49 605.306 1500.08 539.507 C 1369.03 403.523 1207.88 348.557 1021.64 345.06 C 849.5 344.43 686.603 389.827 561.322 512.912 C 512.353 561.023 463.402 630.592 463.089 701.609 C 462.943 734.896 473.533 761.013 496.862 784.569 C 483.205 811.519 472.208 840.937 463.243 869.779 L 327.849 869.967 C 359.856 750.621 415.638 633.235 498.688 540.965 C 629.393 395.748 800.143 313.523 995.48 303.426 z"/>
<path transform="translate(0,0)" fill="rgb(243,242,242)" d="M 1008.81 172.453 C 1191.95 170.262 1362.73 225.87 1506.7 339.595 C 1632.48 438.949 1724.22 567.842 1781.01 717.499 C 1799.73 766.819 1815.34 818.508 1821.51 871.085 L 1746.53 871.029 C 1738.63 840.502 1730.67 809.919 1720.57 780.03 A 800.948 800.948 0 0 0 1594.87 546.597 C 1576.29 523.161 1556.01 501.41 1535.24 479.932 A 713.754 713.754 0 0 0 1038.93 266.662 C 1015.55 266.719 992.087 266.458 968.761 268.272 A 730.34 730.34 0 0 0 595.234 404.853 C 450.877 510.315 336.373 691.919 308.894 869.219 C 280.532 870.396 250.945 870.47 222.59 869.184 C 257.786 695.541 332.615 546.611 454.877 417.941 A 790.582 790.582 0 0 1 1008.81 172.453 z"/>
<path transform="translate(0,0)" fill="rgb(243,242,242)" d="M 1008.74 50.4477 A 882.967 882.967 0 0 1 1479.96 173.686 C 1512.41 192.885 1543.64 214.886 1573.77 237.509 C 1696.81 329.874 1792.61 458.742 1855.26 598.46 C 1865.9 622.202 1876.24 646.028 1884.67 670.67 C 1907.27 736.767 1920.51 802.047 1930.34 871.057 A 4526.21 4526.21 0 0 1 1847.77 870.645 C 1842.82 826.909 1831.97 783.379 1819.05 741.377 A 873.924 873.924 0 0 0 1618.61 393.191 A 815.625 815.625 0 0 0 1046.75 133.071 C 1008.92 132.535 971.296 133.286 933.65 137.291 A 797.113 797.113 0 0 0 602.488 252.507 C 568.983 273.125 536.733 294.783 506.623 320.179 A 874.996 874.996 0 0 0 230.943 736.94 C 217.627 779.69 205.512 824.69 201.693 869.422 C 174.938 870.508 147.922 869.696 121.147 869.447 A 928.674 928.674 0 0 1 376.337 325.359 A 901.403 901.403 0 0 1 856.378 65.6144 C 906.791 56.1234 957.495 51.8557 1008.74 50.4477 z"/>
</svg>